<?xml version="1.0" encoding="utf-8"?>
<!-- Generator: Adobe Illustrator 22.0.1, SVG Export Plug-In . SVG Version: 6.00 Build 0)  -->
<svg version="1.1" id="Layer_1" xmlns="http://www.w3.org/2000/svg" xmlns:xlink="http://www.w3.org/1999/xlink" x="0px" y="0px"
	 viewBox="0 0 598 240" style="enable-background:new 0 0 598 240;" xml:space="preserve">
<style type="text/css">
	.st0{display:none;}
	.st1{display:inline;}
	.st2{fill:#545454;}
	.st3{font-family:'Kollektif-Bold';}
	.st4{font-size:222.8471px;}
	.st5{font-family:'Aileron-Bold';}
	.st6{font-size:40.7408px;}
	.st7{fill:#C9E265;}
</style>
<g id="Layer_1_1_" class="st0">
	<g class="st1">
		<text transform="matrix(1 0 0 1 119.5635 175.0703)" class="st2 st3 st4">z</text>
		<text transform="matrix(1 0 0 1 221.624 175.0703)" class="st2 st3 st4">e</text>
		<text transform="matrix(1 0 0 1 345.2998 175.0703)" class="st2 st3 st4">n</text>
		<text transform="matrix(1 0 0 1 340.5723 232.5781)" class="st2 st5 st6">a</text>
		<text transform="matrix(1 0 0 1 363.4629 232.5781)" class="st2 st5 st6">t</text>
		<text transform="matrix(1 0 0 1 378.166 232.5781)" class="st2 st5 st6">a</text>
		<text transform="matrix(1 0 0 1 401.0566 232.5781)" class="st2 st5 st6"> </text>
		<text transform="matrix(1 0 0 1 408.959 232.5781)" class="st2 st5 st6">s</text>
		<text transform="matrix(1 0 0 1 429.2012 232.5781)" class="st2 st5 st6">o</text>
		<text transform="matrix(1 0 0 1 453.8828 232.5781)" class="st2 st5 st6">l</text>
		<text transform="matrix(1 0 0 1 465.2461 232.5781)" class="st2 st5 st6">u</text>
		<text transform="matrix(1 0 0 1 490.418 232.5781)" class="st2 st5 st6">t</text>
		<text transform="matrix(1 0 0 1 505.1211 232.5781)" class="st2 st5 st6">i</text>
		<text transform="matrix(1 0 0 1 515.9551 232.5781)" class="st2 st5 st6">o</text>
		<text transform="matrix(1 0 0 1 540.6367 232.5781)" class="st2 st5 st6">n</text>
		<text transform="matrix(1 0 0 1 565.9297 232.5781)" class="st2 st5 st6">s</text>
	</g>
</g>
<g id="Layer_2_1_">
	<g>
		<path class="st2" d="M337.9,232.6h-5.6v-3.3l-1.6,2.4c-1.2,0.9-3.4,1.5-5.6,1.5c-6.1,0-9.7-4.6-9.7-11c0-7.9,4.8-11.8,10.4-11.8
			c1.8,0,4,0.4,5.1,1.2l1.4,2.2v-11.2h5.6L337.9,232.6L337.9,232.6z M332.3,222v-1.1c0-4.9-2.8-6.6-5.4-6.6c-3.3,0-5.7,2.5-5.7,7.5
			c0,4.4,2.1,7.4,5.5,7.4C329.8,229.2,332.3,227.3,332.3,222z"/>
		<path class="st2" d="M355.3,229.4l-1.1,2.3c-1.5,1-3.3,1.4-5.4,1.4c-3.7,0-7-2.2-7-6.3c0-4.8,4.1-7.5,11.9-7.5h1.4v-0.4
			c0-0.7,0-1.3-0.1-2c-0.2-1.5-1.1-2.6-3.3-2.6c-2.2,0-3.5,1.3-3.6,3.7h-5.5c0.2-4.9,4.1-7.7,9.3-7.7c6.1,0,8.4,2.6,8.7,6.4
			c0.1,1,0.1,2.2,0.1,3.3v7c0,1.6,0.1,3.1,0.4,5.5h-5.5L355.3,229.4z M355.2,224.6v-1.8c-4.5-0.3-7.5,0.7-7.5,3.5
			c0,1.9,1.3,2.8,3.3,2.8C353.3,229.2,355.2,227.6,355.2,224.6z"/>
		<path class="st2" d="M372.8,224.8c0,0.7,0,1.3,0,1.9c0.2,2.1,0.9,2.6,4.1,2.4v3.7c-1.3,0.2-2.4,0.3-3.7,0.3
			c-4.2,0-5.7-1.4-5.9-4.4c-0.1-1-0.1-1.9-0.1-3.1v-10.7H364v-3.7h3.2v-5.3h5.6v5.3h4.5v3.7h-4.5L372.8,224.8L372.8,224.8z"/>
		<path class="st2" d="M392.9,229.4l-1.1,2.3c-1.5,1-3.3,1.4-5.4,1.4c-3.7,0-7-2.2-7-6.3c0-4.8,4.1-7.5,11.9-7.5h1.4v-0.4
			c0-0.7,0-1.3-0.1-2c-0.2-1.5-1.1-2.6-3.3-2.6c-2.2,0-3.5,1.3-3.6,3.7h-5.5c0.2-4.9,4.1-7.7,9.3-7.7c6.1,0,8.4,2.6,8.7,6.4
			c0.1,1,0.1,2.2,0.1,3.3v7c0,1.6,0.1,3.1,0.4,5.5h-5.5L392.9,229.4z M392.9,224.6v-1.8c-4.5-0.3-7.5,0.7-7.5,3.5
			c0,1.9,1.3,2.8,3.3,2.8C390.9,229.2,392.9,227.6,392.9,224.6z"/>
		<path class="st2" d="M427.9,217.2h-5.6c-0.4-2-1.5-3.1-3.3-3.1c-1.7,0-2.6,1-2.6,2.3c0,1.6,1.3,2.5,4.9,3.4c4.4,1.1,7,2.9,7,6.9
			c0,4.4-4,6.5-8.9,6.5c-5.3,0-9-2.3-9.6-7.2h5.6c0.4,2.4,2.1,3.5,4,3.5c1.8,0,3.2-0.8,3.2-2.4c0-1.7-1.4-2.6-5.2-3.5
			c-4-1-6.8-2.8-6.8-6.5c0-4.2,3.4-6.7,8.6-6.7S427.4,213.2,427.9,217.2z"/>
		<path class="st2" d="M452.8,221.7c0,6.6-4,11.4-11.2,11.4s-11.2-4.8-11.2-11.4c0-6.6,4-11.4,11.2-11.4S452.8,215.1,452.8,221.7z
			 M447,221.7c0-4.7-2-7.5-5.4-7.5s-5.4,2.8-5.4,7.5c0,4.6,2,7.5,5.4,7.5S447,226.4,447,221.7z"/>
		<path class="st2" d="M461.9,225.5c0,0.9,0,1.4,0,2c0.1,1.1,0.6,1.5,2.5,1.3v3.9c-1.1,0.1-2.2,0.2-3.5,0.2c-2.8,0-4.5-1-4.6-3.8
			c-0.1-1-0.1-2-0.1-3.4v-23h5.6v22.8H461.9z"/>
		<path class="st2" d="M487.9,232.6h-5.6v-3.7l-1.7,2.8c-1.6,1.1-3.1,1.5-5.2,1.5c-4.5,0-7.2-2.5-7.7-5.5c-0.2-1.1-0.2-2.2-0.2-4
			v-12.8h5.6v11.6c0,0.7,0,1.9,0.2,3c0.3,2.2,1.6,3.7,4.2,3.7c2.8,0,4.8-2.3,4.8-7.2v-11h5.6L487.9,232.6L487.9,232.6z"/>
		<path class="st2" d="M499.8,224.8c0,0.7,0,1.3,0,1.9c0.2,2.1,0.9,2.6,4.1,2.4v3.7c-1.3,0.2-2.4,0.3-3.7,0.3
			c-4.2,0-5.7-1.4-5.9-4.4c-0.1-1-0.1-1.9-0.1-3.1v-10.7H491v-3.7h3.2v-5.3h5.6v5.3h4.5v3.7h-4.5L499.8,224.8L499.8,224.8z"/>
		<path class="st2" d="M513.6,205.8c0,1.8-1.3,3-3.1,3s-3.1-1.2-3.1-3s1.3-3,3.1-3S513.6,204.1,513.6,205.8z M507.7,232.6v-21.7h5.6
			v21.7H507.7z"/>
		<path class="st2" d="M539.6,221.7c0,6.6-4,11.4-11.2,11.4s-11.2-4.8-11.2-11.4c0-6.6,4-11.4,11.2-11.4S539.6,215.1,539.6,221.7z
			 M533.8,221.7c0-4.7-2-7.5-5.4-7.5s-5.4,2.8-5.4,7.5c0,4.6,2,7.5,5.4,7.5C531.7,229.2,533.8,226.4,533.8,221.7z"/>
		<path class="st2" d="M563.6,220.4v12.2H558v-11.4c0-0.9,0-1.9-0.1-3c-0.2-2.3-1.4-3.8-4.2-3.8s-4.9,2.4-4.9,8.4v9.9h-5.6V211h5.6
			v3.5l1.7-2.6c1.5-1.1,3.1-1.5,5.2-1.5c4.6,0,7.3,2.3,7.7,6.1C563.6,217.5,563.6,218.6,563.6,220.4z"/>
		<path class="st2" d="M584.9,217.2h-5.6c-0.4-2-1.5-3.1-3.3-3.1c-1.7,0-2.6,1-2.6,2.3c0,1.6,1.3,2.5,4.9,3.4c4.4,1.1,7,2.9,7,6.9
			c0,4.4-4,6.5-8.9,6.5c-5.3,0-9-2.3-9.6-7.2h5.6c0.4,2.4,2.1,3.5,4,3.5c1.8,0,3.2-0.8,3.2-2.4c0-1.7-1.4-2.6-5.2-3.5
			c-4-1-6.8-2.8-6.8-6.5c0-4.2,3.4-6.7,8.6-6.7S584.4,213.2,584.9,217.2z"/>
	</g>
	<g>
		<path class="st2" d="M9,17.1h114.5v30.8H83.2v127.2H49.4V47.8H9V17.1z"/>
		<path class="st2" d="M166.1,147.7h51v27.4h-91.4v-25.9l45.5-57.3H130V64.5h85.8V85L166.1,147.7z"/>
		<path class="st2" d="M284,61.4c8.3,0,15.9,1.7,22.7,5c6.8,3.3,12.7,7.7,17.6,13.1s8.7,11.7,11.4,18.7c2.7,7.1,4,14.3,4,21.7
			c0,4.5-0.6,9.2-1.8,14.3H259c3,5.1,7.2,9.3,12.7,12.8s11.4,5.2,17.8,5.2s12-0.5,16.8-1.6c4.8-1,9.4-2.4,13.7-4l10.3,18.9
			c-5.5,3.9-11.8,6.8-18.8,8.9c-7.1,2.1-14.6,3.1-22.6,3.1c-8.8,0-16.9-1.5-24.5-4.6c-7.6-3-14.2-7.2-19.8-12.4
			s-10.1-11.4-13.4-18.5c-3.3-7.1-4.9-14.7-4.9-22.7c0-7.9,1.5-15.3,4.5-22.4s7.1-13.2,12.4-18.5c5.3-5.3,11.4-9.5,18.4-12.6
			C268.5,63,276,61.4,284,61.4z M309.2,110.4c-1.8-6.4-5-11.6-9.6-15.6s-9.8-6-15.6-6c-5.9,0-11.3,2-16.2,6c-4.8,4-8.1,9.2-9.9,15.6
			H309.2z"/>
		<path class="st2" d="M411.6,64.5c4.1,0,8.7,0.6,13.8,1.8c5,1.2,9.8,3.4,14.2,6.7c4.4,3.3,8.2,7.8,11.2,13.6s4.6,13.3,4.6,22.5v66
			h-30.8v-64.7c0-3.4-0.6-6.3-1.7-8.7c-1.1-2.4-2.6-4.3-4.5-5.7c-1.9-1.4-4-2.4-6.4-3.1s-4.8-1-7.1-1c-1.9,0-4,0.3-6.4,1
			c-2.3,0.7-4.5,1.7-6.5,3.2s-3.7,3.4-5,5.8s-2,5.2-2,8.4V175h-30.8V64.5h26.3L385,73c3.6-2.5,7.6-4.6,12-6.1
			C401.6,65.3,406.4,64.5,411.6,64.5z"/>
		<path class="st2" d="M582.6,64.5V175h-26.5l-3.1-11.8c-4.3,5.8-9.5,9.7-15.5,11.6c-6,1.9-12.3,2.9-18.8,2.9
			c-7.9,0-15.1-1.5-21.7-4.6c-6.6-3-12.4-7.2-17.3-12.5s-8.7-11.4-11.5-18.5s-4.1-14.6-4.1-22.6s1.4-15.6,4.1-22.6
			c2.7-7.1,6.6-13.2,11.5-18.5S490.4,69,497,65.9c6.6-3,13.9-4.6,21.7-4.6c7.1,0,13.7,1.1,19.6,3.3c5.9,2.2,10.8,5.8,14.7,10.7
			l3.1-10.9h26.5V64.5z M551.9,120c0-5.8-0.8-10.7-2.3-14.6c-1.6-3.9-3.6-7.1-6.2-9.6c-2.6-2.5-5.6-4.2-9.1-5.3
			c-3.5-1.1-7.2-1.7-11.3-1.7c-4,0-7.8,0.8-11.3,2.5c-3.5,1.6-6.6,3.8-9.2,6.6c-2.7,2.8-4.8,6-6.2,9.8c-1.5,3.8-2.2,7.8-2.2,11.9
			c0,4.3,0.7,8.3,2.2,12s3.6,6.9,6.2,9.7c2.7,2.8,5.8,4.9,9.2,6.6c3.5,1.6,7.2,2.5,11.3,2.5c8,0,14.8-2.5,20.4-7.5
			C548.9,137.9,551.7,130.3,551.9,120z"/>
	</g>
	<path class="st7" d="M485.5,9.6h62.3c20.4,0,36.9,16.9,36.9,37.7h-99.2V9.6z"/>
</g>
</svg>
