<?xml version="1.0" encoding="utf-8"?>
<!-- Generator: Adobe Illustrator 22.0.1, SVG Export Plug-In . SVG Version: 6.00 Build 0)  -->
<svg version="1.1" id="Layer_1" xmlns="http://www.w3.org/2000/svg" xmlns:xlink="http://www.w3.org/1999/xlink" x="0px" y="0px"
	 viewBox="0 0 182.4 80" style="enable-background:new 0 0 182.4 80;" xml:space="preserve">
<style type="text/css">
	.st0{enable-background:new    ;}
	.st1{fill:#009BDF;}
</style>
<g class="st0">
	<path class="st1" d="M10.3,72.9c-1.4-1.6-2.1-4.1-2.1-7.6V28h-4V17.2h4V4.6H22v12.6h4.1V28H22v33.5c0,1,0.1,1.8,0.2,2.3
		c0.2,0.5,0.6,0.7,1.3,0.7c0.5,0,1.1,0,1.5-0.1c0.5-0.1,0.8-0.1,1-0.1v9.8c-0.8,0.2-2,0.4-3.5,0.7c-1.5,0.2-3.1,0.4-4.5,0.4
		C14.3,75.3,11.7,74.5,10.3,72.9z"/>
	<path class="st1" d="M28.9,74.6v-8.7l14.8-39.7H29.5V14.9h29v9.7l-14,39.3h14.2v10.7H28.9z"/>
	<path class="st1" d="M65.6,70.2c-2.7-3.4-4-8.4-4-15.1v-24c0-5.5,1.6-9.7,4.7-12.6c3.2-2.9,7.6-4.3,13.2-4.3
		c11.5,0,17.2,5.6,17.2,16.9v4.3c0,4.4-0.1,7.9-0.2,10.6H75.8v11.6c0,2.1,0.2,3.7,0.7,4.9c0.4,1.2,1.4,1.8,2.8,1.8
		c1.1,0,1.9-0.3,2.3-1c0.5-0.7,0.7-1.4,0.8-2.2c0.1-0.8,0.1-2.1,0.1-3.7v-5.8h14.2V55c0,7-1.3,12.1-4,15.4
		c-2.7,3.3-7.3,4.9-13.9,4.9C72.6,75.3,68.2,73.6,65.6,70.2z M82.5,39v-7.7c0-4.3-1.1-6.4-3.2-6.4c-2.4,0-3.6,2.1-3.6,6.4V39H82.5z"
		/>
	<path class="st1" d="M101.9,14.9h14.3v7.6c0.6-2.4,1.6-4.4,3.1-6c1.5-1.5,3.4-2.3,5.9-2.3c4,0,7,1.2,8.9,3.7
		c1.9,2.5,2.9,6,2.9,10.6v46.1h-14V30c0-1.3-0.3-2.4-0.8-3.3c-0.5-0.9-1.3-1.4-2.4-1.4c-1.5,0-2.4,0.7-2.9,2
		c-0.5,1.3-0.7,3.1-0.7,5.3v42h-14.3V14.9z"/>
	<path class="st1" d="M143.9,70.7c-1.7-3.1-2.6-7.5-2.6-13.2c0-4.7,0.6-8.3,1.8-10.8c1.2-2.5,2.9-4.3,5.1-5.5
		c2.2-1.2,5.5-2.5,10-3.9l3.9-1.3v-0.2v-6c0-1.6-0.3-2.8-0.9-3.6c-0.6-0.8-1.4-1.3-2.2-1.3c-0.8,0-1.4,0.4-2,1.1
		c-0.6,0.7-0.9,1.7-0.9,2.9v3.6h-13.9v-2c0-5.9,1.4-10.1,4.1-12.6c2.7-2.5,7.2-3.8,13.4-3.8c4.9,0,9,1.3,12.1,3.9
		c3.1,2.6,4.6,6.2,4.6,11v45.5h-14.2v-7.1c-0.7,2.4-1.8,4.3-3.4,5.7c-1.6,1.4-3.4,2-5.5,2C148.8,75.3,145.6,73.7,143.9,70.7z
		 M161.4,62.8c0.5-0.9,0.7-2,0.7-3.3V42.9c-2.1,0.8-3.7,1.8-4.7,3.1c-1,1.3-1.5,3-1.5,5.2v7.7c0,3.5,1.1,5.3,3.2,5.3
		C160.1,64.2,160.9,63.7,161.4,62.8z"/>
</g>
</svg>
