<?xml version="1.0" standalone="no"?>
<!DOCTYPE svg PUBLIC "-//W3C//DTD SVG 20010904//EN"
 "http://www.w3.org/TR/2001/REC-SVG-20010904/DTD/svg10.dtd">
<svg version="1.0" xmlns="http://www.w3.org/2000/svg"
 width="700.000000pt" height="700.000000pt" viewBox="0 0 700.000000 700.000000"
 preserveAspectRatio="xMidYMid meet">
<metadata>
Created by potrace 1.11, written by Peter Selinger 2001-2013
</metadata>
<g transform="translate(0.000000,700.000000) scale(0.100000,-0.100000)"
fill="#000000" stroke="none">
<path d="M1904 6972 l-22 -3 0 -775 0 -774 2045 0 2045 0 -6 86 c-17 238 -66
422 -164 619 -140 281 -376 526 -650 671 -108 58 -274 120 -367 138 -16 4 -41
9 -55 12 -37 7 -78 13 -145 20 -58 7 -2639 12 -2681 6z"/>
<path d="M3058 4835 c-1 -2 -34 -6 -72 -9 -37 -4 -125 -18 -195 -32 -690 -140
-1298 -654 -1590 -1345 -58 -138 -119 -330 -138 -429 -2 -14 -8 -43 -13 -65
-5 -22 -12 -62 -16 -90 -3 -27 -8 -52 -9 -55 -9 -15 -20 -235 -19 -385 0 -152
10 -320 19 -335 2 -3 6 -27 9 -55 18 -156 96 -435 168 -599 70 -161 172 -338
276 -481 160 -218 383 -427 622 -579 155 -99 451 -228 598 -261 240 -54 333
-63 592 -60 124 2 236 5 250 8 14 3 63 11 110 17 428 61 731 216 956 492 l59
71 17 -69 c39 -162 109 -408 117 -413 5 -4 251 -6 548 -6 l538 1 0 2277 1
2277 -316 0 c-553 1 -773 0 -777 -4 -2 -2 -31 -100 -65 -217 -33 -118 -63
-216 -65 -219 -3 -3 -14 6 -25 20 -62 78 -169 179 -243 230 -27 19 -53 38 -56
42 -10 15 -254 134 -309 152 -102 34 -237 70 -302 81 -18 3 -40 8 -48 10 -8 2
-39 7 -69 10 -30 4 -63 9 -75 12 -24 6 -472 14 -478 8z m567 -1140 c39 -4 73
-9 77 -11 4 -3 23 -7 42 -9 56 -7 226 -65 297 -101 178 -89 328 -245 429 -444
101 -202 143 -401 144 -685 1 -398 -94 -691 -295 -909 -158 -171 -408 -305
-639 -341 -25 -4 -54 -9 -65 -12 -39 -9 -281 -11 -335 -2 -104 16 -125 21
-200 46 -170 57 -340 163 -475 297 -199 198 -312 424 -361 721 -14 89 -11 310
6 412 63 370 255 667 560 864 135 88 332 162 463 175 34 3 63 7 65 9 5 4 218
-2 287 -10z"/>
</g>
</svg>
