<?xml version="1.0" standalone="no"?>
<!DOCTYPE svg PUBLIC "-//W3C//DTD SVG 20010904//EN"
 "http://www.w3.org/TR/2001/REC-SVG-20010904/DTD/svg10.dtd">
<svg version="1.0" xmlns="http://www.w3.org/2000/svg"
 width="700.000000pt" height="700.000000pt" viewBox="0 0 700.000000 700.000000"
 preserveAspectRatio="xMidYMid meet">
<metadata>
Created by potrace 1.11, written by Peter Selinger 2001-2013
</metadata>
<g transform="translate(0.000000,700.000000) scale(0.100000,-0.100000)"
fill="#000000" stroke="none">
<path d="M3478 6936 c-1 -2 -74 -6 -161 -9 -87 -4 -161 -8 -165 -11 -4 -2 -36
-7 -72 -10 -164 -17 -428 -73 -612 -131 -385 -121 -758 -318 -1078 -569 -143
-112 -167 -133 -316 -281 -481 -478 -807 -1084 -938 -1745 -14 -69 -28 -145
-31 -170 -3 -25 -8 -56 -10 -70 -4 -22 -11 -101 -21 -215 -5 -55 -4 -412 1
-455 2 -19 6 -66 10 -105 12 -135 34 -276 62 -395 8 -36 17 -76 20 -90 8 -48
65 -235 103 -342 136 -379 355 -756 624 -1073 79 -92 283 -295 372 -370 109
-92 115 -97 175 -141 201 -149 436 -289 639 -379 47 -21 103 -46 125 -55 93
-42 394 -137 526 -166 69 -15 281 -53 324 -58 66 -7 148 -16 210 -21 61 -6
403 -6 465 0 114 10 180 17 235 25 33 5 83 12 110 16 28 3 52 8 55 9 3 2 23 6
45 9 31 5 181 42 280 69 298 83 650 244 904 413 40 27 81 54 90 59 15 9 64 45
136 98 185 138 424 372 598 587 73 89 267 370 267 386 0 3 8 18 19 32 30 43
123 227 178 352 93 211 176 478 218 698 8 43 17 88 20 102 2 13 7 42 10 65 3
22 8 51 10 65 2 14 7 59 11 100 3 41 8 91 10 110 4 45 4 414 -1 460 -1 19 -6
71 -10 115 -4 43 -8 86 -10 95 -1 8 -6 40 -10 70 -20 157 -84 417 -145 595
-37 105 -54 152 -103 270 -56 137 -217 423 -324 578 -179 257 -462 560 -693
740 -336 263 -733 471 -1120 588 -179 55 -420 107 -575 124 -33 4 -69 9 -80
11 -11 2 -94 6 -185 10 -91 3 -170 7 -177 9 -6 2 -13 2 -15 1z"/>
</g>
</svg>
